<!-- Generated by IcoMoon.io -->
<svg version="1.1" xmlns="http://www.w3.org/2000/svg" width="16" height="16" viewBox="0 0 16 16">
<title>grid</title>
<path d="M6 9h-5c-0.553 0-1 0.447-1 1v5c0 0.553 0.447 1 1 1h5c0.553 0 1-0.447 1-1v-5c0-0.553-0.447-1-1-1zM5 14h-3v-3h3v3zM6 0h-5c-0.553 0-1 0.447-1 1v5c0 0.553 0.447 1 1 1h5c0.553 0 1-0.447 1-1v-5c0-0.553-0.447-1-1-1zM5 5h-3v-3h3v3zM15 9h-5c-0.553 0-1 0.447-1 1v5c0 0.553 0.447 1 1 1h5c0.553 0 1-0.447 1-1v-5c0-0.553-0.447-1-1-1zM14 14h-3v-3h3v3zM15 0h-5c-0.553 0-1 0.447-1 1v5c0 0.553 0.447 1 1 1h5c0.553 0 1-0.447 1-1v-5c0-0.553-0.447-1-1-1zM14 5h-3v-3h3v3z"></path>
</svg>
