<svg aria-hidden="true" style="position: absolute; width: 0; height: 0; overflow: hidden;" version="1.1" xmlns="http://www.w3.org/2000/svg" xmlns:xlink="http://www.w3.org/1999/xlink">
<defs>
<symbol id="icon-stats" viewBox="0 0 32 32">
<path d="M30 0h-28c-1.104 0-2 0.896-2 2v20c0 1.104 0.896 2 2 2h8l-4 8h1l7.2-8h3.6l7.2 8h1l-4-8h8c1.104 0 2-0.896 2-2v-20c0-1.104-0.896-2-2-2zM30 21c0 0.553-0.447 1-1 1h-26c-0.553 0-1-0.447-1-1v-18c0-0.553 0.447-1 1-1h26c0.553 0 1 0.447 1 1v18zM20.878 15.631l-4.521-11.629-4.938 9.29-2.756-2.835-4.663 2.906 1.316 0.758 2.988-1.862 3.605 3.712 4.175-7.853 4.616 11.879 3.937-8.288 1.604 3.414 1.759-0.295-3.354-7.132-3.768 7.935z"></path>
</symbol>
<symbol id="icon-file-text2" viewBox="0 0 32 32">
<path d="M28.681 7.159c-0.694-0.947-1.662-2.053-2.724-3.116s-2.169-2.030-3.116-2.724c-1.612-1.182-2.393-1.319-2.841-1.319h-15.5c-1.378 0-2.5 1.121-2.5 2.5v27c0 1.378 1.122 2.5 2.5 2.5h23c1.378 0 2.5-1.122 2.5-2.5v-19.5c0-0.448-0.137-1.23-1.319-2.841zM24.543 5.457c0.959 0.959 1.712 1.825 2.268 2.543h-4.811v-4.811c0.718 0.556 1.584 1.309 2.543 2.268zM28 29.5c0 0.271-0.229 0.5-0.5 0.5h-23c-0.271 0-0.5-0.229-0.5-0.5v-27c0-0.271 0.229-0.5 0.5-0.5 0 0 15.499-0 15.5 0v7c0 0.552 0.448 1 1 1h7v19.5z"></path>
<path d="M23 26h-14c-0.552 0-1-0.448-1-1s0.448-1 1-1h14c0.552 0 1 0.448 1 1s-0.448 1-1 1z"></path>
<path d="M23 22h-14c-0.552 0-1-0.448-1-1s0.448-1 1-1h14c0.552 0 1 0.448 1 1s-0.448 1-1 1z"></path>
<path d="M23 18h-14c-0.552 0-1-0.448-1-1s0.448-1 1-1h14c0.552 0 1 0.448 1 1s-0.448 1-1 1z"></path>
</symbol>
<symbol id="icon-messages" viewBox="0 0 24 24">
<path d="M21 7h-3c0-1.65-1.35-3-3-3h-12c-1.65 0-3 1.35-3 3v7c0 1.65 1.35 3 3 3v3l3-3c0 1.65 1.35 3 3 3h8l3 3v-3h1c1.65 0 3-1.35 3-3v-7c0-1.65-1.35-3-3-3zM3 15c-0.542 0-1-0.458-1-1v-7c0-0.542 0.458-1 1-1h12c0.542 0 1 0.458 1 1v1h-6.5c-1.379 0-2.5 1.121-2.5 2.5v4.5h-4zM22 17c0 0.542-0.458 1-1 1h-12c-0.542 0-1-0.458-1-1v-6.5c0-0.827 0.673-1.5 1.5-1.5h11.5c0.542 0 1 0.458 1 1v7z"></path>
</symbol>
</defs>
</svg>
